<mxfile host="app.diagrams.net" modified="2023-09-29T23:06:55.145Z" agent="Mozilla/5.0 (Windows NT 10.0; Win64; x64) AppleWebKit/537.36 (KHTML, like Gecko) Chrome/116.0.0.0 Safari/537.36" etag="6Em9bueedvysvVtYUE_e" version="21.6.9" type="google">
  <diagram name="PÃ¡gina-1" id="LtxbGIZH78hufB1CDq7Y">
    <mxGraphModel dx="794" dy="734" grid="1" gridSize="10" guides="1" tooltips="1" connect="1" arrows="1" fold="1" page="1" pageScale="1" pageWidth="827" pageHeight="1169" math="0" shadow="0">
      <root>
        <mxCell id="0" />
        <mxCell id="1" parent="0" />
        <mxCell id="VuaPKQPEfALa_zJ9A4A2-3" value="Mobile First" style="text;html=1;strokeColor=none;fillColor=none;align=center;verticalAlign=middle;whiteSpace=wrap;rounded=0;fontSize=21;" vertex="1" parent="1">
          <mxGeometry y="120" width="200" height="40" as="geometry" />
        </mxCell>
        <mxCell id="VuaPKQPEfALa_zJ9A4A2-4" value="Wieframes" style="text;html=1;strokeColor=none;fillColor=none;align=center;verticalAlign=middle;whiteSpace=wrap;rounded=0;fontSize=25;" vertex="1" parent="1">
          <mxGeometry x="40" y="10" width="240" height="50" as="geometry" />
        </mxCell>
        <mxCell id="VuaPKQPEfALa_zJ9A4A2-5" value="" style="swimlane;startSize=0;" vertex="1" parent="1">
          <mxGeometry x="40" y="160" width="240" height="560" as="geometry" />
        </mxCell>
        <mxCell id="VuaPKQPEfALa_zJ9A4A2-6" value="" style="swimlane;startSize=0;" vertex="1" parent="VuaPKQPEfALa_zJ9A4A2-5">
          <mxGeometry width="240" height="120" as="geometry" />
        </mxCell>
        <mxCell id="VuaPKQPEfALa_zJ9A4A2-7" value="" style="ellipse;whiteSpace=wrap;html=1;aspect=fixed;" vertex="1" parent="VuaPKQPEfALa_zJ9A4A2-6">
          <mxGeometry x="80" y="10" width="80" height="80" as="geometry" />
        </mxCell>
        <mxCell id="VuaPKQPEfALa_zJ9A4A2-8" value="Maciel" style="text;html=1;strokeColor=none;fillColor=none;align=center;verticalAlign=middle;whiteSpace=wrap;rounded=0;" vertex="1" parent="VuaPKQPEfALa_zJ9A4A2-6">
          <mxGeometry x="90" y="90" width="60" height="30" as="geometry" />
        </mxCell>
        <mxCell id="VuaPKQPEfALa_zJ9A4A2-9" value="&lt;h1&gt;Heading&lt;/h1&gt;&lt;p&gt;Lorem ipsum dolor sit amet, consectetur adipisicing elit, sed do eiusmod tempor incididunt ut labore et dolore magna aliqua.&lt;/p&gt;" style="text;html=1;strokeColor=none;fillColor=none;spacing=5;spacingTop=-20;whiteSpace=wrap;overflow=hidden;rounded=0;" vertex="1" parent="VuaPKQPEfALa_zJ9A4A2-5">
          <mxGeometry y="120" width="240" height="120" as="geometry" />
        </mxCell>
        <mxCell id="VuaPKQPEfALa_zJ9A4A2-10" value="" style="rounded=1;whiteSpace=wrap;html=1;absoluteArcSize=1;arcSize=14;strokeWidth=2;" vertex="1" parent="VuaPKQPEfALa_zJ9A4A2-5">
          <mxGeometry x="10" y="220" width="220" height="80" as="geometry" />
        </mxCell>
        <mxCell id="VuaPKQPEfALa_zJ9A4A2-11" value="&lt;h1&gt;Heading&lt;/h1&gt;&lt;p&gt;Lorem ipsum dolor sit amet, consectetur adipisicing elit, sed do eiusmod tempor incididunt ut labore et dolore magna aliqua.&lt;/p&gt;" style="text;html=1;strokeColor=none;fillColor=none;spacing=5;spacingTop=-20;whiteSpace=wrap;overflow=hidden;rounded=0;" vertex="1" parent="VuaPKQPEfALa_zJ9A4A2-5">
          <mxGeometry x="10" y="305" width="220" height="120" as="geometry" />
        </mxCell>
        <mxCell id="VuaPKQPEfALa_zJ9A4A2-12" value="" style="rounded=1;whiteSpace=wrap;html=1;" vertex="1" parent="VuaPKQPEfALa_zJ9A4A2-5">
          <mxGeometry x="10" y="425" width="220" height="95" as="geometry" />
        </mxCell>
        <mxCell id="VuaPKQPEfALa_zJ9A4A2-15" value="" style="swimlane;startSize=0;" vertex="1" parent="VuaPKQPEfALa_zJ9A4A2-5">
          <mxGeometry y="530" width="240" height="30" as="geometry" />
        </mxCell>
        <mxCell id="VuaPKQPEfALa_zJ9A4A2-16" value="Text" style="text;html=1;strokeColor=none;fillColor=none;align=center;verticalAlign=middle;whiteSpace=wrap;rounded=0;" vertex="1" parent="VuaPKQPEfALa_zJ9A4A2-5">
          <mxGeometry x="90" y="457.5" width="60" height="30" as="geometry" />
        </mxCell>
        <mxCell id="VuaPKQPEfALa_zJ9A4A2-19" value="" style="ellipse;whiteSpace=wrap;html=1;aspect=fixed;" vertex="1" parent="VuaPKQPEfALa_zJ9A4A2-5">
          <mxGeometry x="20" y="240" width="50" height="50" as="geometry" />
        </mxCell>
        <mxCell id="VuaPKQPEfALa_zJ9A4A2-18" value="" style="ellipse;whiteSpace=wrap;html=1;aspect=fixed;" vertex="1" parent="VuaPKQPEfALa_zJ9A4A2-5">
          <mxGeometry x="95" y="240" width="50" height="50" as="geometry" />
        </mxCell>
        <mxCell id="VuaPKQPEfALa_zJ9A4A2-17" value="" style="ellipse;whiteSpace=wrap;html=1;aspect=fixed;" vertex="1" parent="VuaPKQPEfALa_zJ9A4A2-5">
          <mxGeometry x="170" y="240" width="50" height="50" as="geometry" />
        </mxCell>
        <mxCell id="VuaPKQPEfALa_zJ9A4A2-23" value="" style="swimlane;startSize=0;" vertex="1" parent="1">
          <mxGeometry x="300" y="160" width="690" height="440" as="geometry" />
        </mxCell>
        <mxCell id="VuaPKQPEfALa_zJ9A4A2-30" value="" style="swimlane;startSize=0;" vertex="1" parent="VuaPKQPEfALa_zJ9A4A2-23">
          <mxGeometry x="80" y="170" width="190" height="230" as="geometry" />
        </mxCell>
        <mxCell id="VuaPKQPEfALa_zJ9A4A2-32" value="&lt;h1&gt;Heading&lt;/h1&gt;&lt;p&gt;Lorem ipsum dolor sit amet, consectetur adipisicing elit, sed do eiusmod tempor incididunt ut labore et dolore magna aliqua.&lt;/p&gt;" style="text;html=1;strokeColor=none;fillColor=none;spacing=5;spacingTop=-20;whiteSpace=wrap;overflow=hidden;rounded=0;" vertex="1" parent="VuaPKQPEfALa_zJ9A4A2-30">
          <mxGeometry y="110" width="180" height="110" as="geometry" />
        </mxCell>
        <mxCell id="VuaPKQPEfALa_zJ9A4A2-31" value="" style="swimlane;startSize=0;" vertex="1" parent="VuaPKQPEfALa_zJ9A4A2-23">
          <mxGeometry x="420" y="280" width="200" height="120" as="geometry" />
        </mxCell>
        <mxCell id="VuaPKQPEfALa_zJ9A4A2-33" value="&lt;h1&gt;Heading&lt;/h1&gt;&lt;p&gt;Lorem ipsum dolor sit amet, consectetur adipisicing elit, sed do eiusmod tempor incididunt ut labore et dolore magna aliqua.&lt;/p&gt;" style="text;html=1;strokeColor=none;fillColor=none;spacing=5;spacingTop=-20;whiteSpace=wrap;overflow=hidden;rounded=0;" vertex="1" parent="VuaPKQPEfALa_zJ9A4A2-23">
          <mxGeometry x="420" y="160" width="190" height="120" as="geometry" />
        </mxCell>
        <mxCell id="VuaPKQPEfALa_zJ9A4A2-24" value="" style="swimlane;startSize=0;" vertex="1" parent="1">
          <mxGeometry x="300" y="160" width="690" height="155" as="geometry" />
        </mxCell>
        <mxCell id="VuaPKQPEfALa_zJ9A4A2-25" value="" style="ellipse;whiteSpace=wrap;html=1;aspect=fixed;" vertex="1" parent="VuaPKQPEfALa_zJ9A4A2-24">
          <mxGeometry x="60" y="20" width="80" height="80" as="geometry" />
        </mxCell>
        <mxCell id="VuaPKQPEfALa_zJ9A4A2-35" value="&lt;h1&gt;Heading&lt;/h1&gt;&lt;p&gt;Lorem ipsum dolor sit amet, consectetur adipisicing elit, sed do eiusmod tempor incididunt ut labore et dolore magna aliqua.&lt;/p&gt;" style="text;html=1;strokeColor=none;fillColor=none;spacing=5;spacingTop=-20;whiteSpace=wrap;overflow=hidden;rounded=0;" vertex="1" parent="VuaPKQPEfALa_zJ9A4A2-24">
          <mxGeometry x="170" y="10" width="470" height="100" as="geometry" />
        </mxCell>
        <mxCell id="VuaPKQPEfALa_zJ9A4A2-26" value="" style="swimlane;startSize=0;" vertex="1" parent="1">
          <mxGeometry x="300" y="280" width="690" height="40" as="geometry" />
        </mxCell>
        <mxCell id="VuaPKQPEfALa_zJ9A4A2-27" value="" style="swimlane;startSize=0;" vertex="1" parent="VuaPKQPEfALa_zJ9A4A2-26">
          <mxGeometry x="80" y="5" width="150" height="25" as="geometry" />
        </mxCell>
        <mxCell id="VuaPKQPEfALa_zJ9A4A2-28" value="" style="swimlane;startSize=0;fontStyle=0" vertex="1" parent="VuaPKQPEfALa_zJ9A4A2-26">
          <mxGeometry x="470" y="5" width="150" height="25" as="geometry" />
        </mxCell>
        <mxCell id="VuaPKQPEfALa_zJ9A4A2-29" value="" style="swimlane;startSize=0;fontStyle=0" vertex="1" parent="VuaPKQPEfALa_zJ9A4A2-26">
          <mxGeometry x="280" y="5" width="150" height="25" as="geometry" />
        </mxCell>
        <mxCell id="VuaPKQPEfALa_zJ9A4A2-34" value="" style="swimlane;startSize=0;" vertex="1" parent="1">
          <mxGeometry x="300" y="570" width="690" height="30" as="geometry" />
        </mxCell>
      </root>
    </mxGraphModel>
  </diagram>
</mxfile>
